<svg width="57" height="63" viewBox="0 0 57 63" fill="none" xmlns="http://www.w3.org/2000/svg">
<path d="M18.2934 35.9861C17.9156 36.5561 17.4648 37.1498 16.9393 37.7605C15.0848 39.9156 12.8104 41.6888 11.3425 42.6159L11.0956 42.7718C10.1089 43.395 9.5 44.5547 9.5 45.8107V54.25C9.5 56.183 10.9178 57.75 12.6667 57.75H43.5417C45.2906 57.75 46.7083 56.183 46.7083 54.25V45.8107C46.7083 44.5547 46.0994 43.395 45.1128 42.7718L44.8659 42.6159C43.3979 41.6888 41.1235 39.9156 39.269 37.7605C38.7435 37.1498 38.2927 36.5561 37.9149 35.9861C39.3047 35.6161 40.3373 34.233 40.3373 32.5833V26.886C40.3373 25.7488 39.8374 24.6824 38.9968 24.0266L37.6518 22.9773C38.4279 21.3107 38.8671 19.4195 38.8671 17.4167C38.8671 10.6972 33.9386 5.25 27.8591 5.25C21.7796 5.25 16.8512 10.6972 16.8512 17.4167C16.8512 19.5322 17.341 21.5226 18.2 23.2554L17.2115 24.0266C16.3709 24.6824 15.871 25.7488 15.871 26.886V32.5833C15.871 34.233 16.9036 35.6161 18.2934 35.9861Z" fill="#D9D9D9"/>
<path d="M35.7005 17.4167C35.7005 19.9302 34.7323 22.1939 33.1857 23.7769L37.1707 26.886V32.5833H33.2695C33.4577 35.2242 34.9907 37.8672 36.9745 40.1725C39.0798 42.6191 41.6127 44.5923 43.2948 45.6547L43.5417 45.8107V54.25H12.6667V45.8107L12.9137 45.6547C14.5958 44.5923 17.1287 42.6191 19.234 40.1725C21.2178 37.8672 22.7508 35.2242 22.939 32.5833H19.0378V26.886L22.7492 23.9904C21.0769 22.401 20.0179 20.0455 20.0179 17.4167C20.0179 12.6302 23.5286 8.75 27.8592 8.75C32.1898 8.75 35.7005 12.6302 35.7005 17.4167Z" fill="#7B61FF"/>
</svg>
